<svg xmlns="http://www.w3.org/2000/svg" viewBox="0 0 926 428"><g transform="
          rotate(180 463 214) 
          translate(-1.1368683772161603e-13 -5.684341886080802e-14)
          scale(1.0000000000000002)
        "><rect width="926" height="428" fill="rgb(114, 237, 230)"></rect><g transform="translate(0, 0)"><path fill="rgb(169, 244, 240)" fill-opacity="1" d="M0,83.922L30.867,83.24C61.733,82.558,123.467,81.194,185.2,80.983C246.933,80.771,308.667,81.712,370.4,81.818C432.133,81.924,493.867,81.194,555.6,72.09C617.333,62.986,679.067,45.507,740.8,44.03C802.533,42.554,864.267,57.081,895.133,64.344L926,71.608L926,428L895.133,428C864.267,428,802.533,428,740.8,428C679.067,428,617.333,428,555.6,428C493.867,428,432.133,428,370.4,428C308.667,428,246.933,428,185.2,428C123.467,428,61.733,428,30.867,428L0,428Z"></path></g><g transform="translate(0, 85.60000000000001)"><path fill="rgb(215, 250, 248)" fill-opacity="1" d="M0,1.314L30.867,11.701C61.733,22.088,123.467,42.861,185.2,48.036C246.933,53.21,308.667,42.785,370.4,33.136C432.133,23.486,493.867,14.613,555.6,19.193C617.333,23.774,679.067,41.808,740.8,45.06C802.533,48.312,864.267,36.781,895.133,31.016L926,25.25L926,342.4L895.133,342.4C864.267,342.4,802.533,342.4,740.8,342.4C679.067,342.4,617.333,342.4,555.6,342.4C493.867,342.4,432.133,342.4,370.4,342.4C308.667,342.4,246.933,342.4,185.2,342.4C123.467,342.4,61.733,342.4,30.867,342.4L0,342.4Z"></path></g><g transform="translate(0, 171.20000000000002)"><path fill="rgb(243, 253, 253)" fill-opacity="1" d="M0,25.214L30.867,33.586C61.733,41.958,123.467,58.702,185.2,67.695C246.933,76.687,308.667,77.929,370.4,67.689C432.133,57.45,493.867,35.729,555.6,26.779C617.333,17.829,679.067,21.65,740.8,30.025C802.533,38.4,864.267,51.328,895.133,57.792L926,64.257L926,256.8L895.133,256.8C864.267,256.8,802.533,256.8,740.8,256.8C679.067,256.8,617.333,256.8,555.6,256.8C493.867,256.8,432.133,256.8,370.4,256.8C308.667,256.8,246.933,256.8,185.2,256.8C123.467,256.8,61.733,256.8,30.867,256.8L0,256.8Z"></path></g><g transform="translate(0, 256.8)"><path fill="rgb(253, 255, 255)" fill-opacity="1" d="M0,80.347L30.867,74.137C61.733,67.928,123.467,55.51,185.2,42.874C246.933,30.239,308.667,17.387,370.4,10.311C432.133,3.235,493.867,1.936,555.6,9.768C617.333,17.6,679.067,34.563,740.8,39.895C802.533,45.227,864.267,38.927,895.133,35.778L926,32.628L926,171.2L895.133,171.2C864.267,171.2,802.533,171.2,740.8,171.2C679.067,171.2,617.333,171.2,555.6,171.2C493.867,171.2,432.133,171.2,370.4,171.2C308.667,171.2,246.933,171.2,185.2,171.2C123.467,171.2,61.733,171.2,30.867,171.2L0,171.2Z"></path></g><g transform="translate(0, 342.40000000000003)"><path fill="rgb(255, 255, 255)" fill-opacity="1" d="M0,12.242L30.867,13.783C61.733,15.324,123.467,18.407,185.2,20.594C246.933,22.78,308.667,24.071,370.4,31.638C432.133,39.205,493.867,53.048,555.6,62.476C617.333,71.904,679.067,76.915,740.8,79.921C802.533,82.928,864.267,83.928,895.133,84.428L926,84.929L926,85.6L895.133,85.6C864.267,85.6,802.533,85.6,740.8,85.6C679.067,85.6,617.333,85.6,555.6,85.6C493.867,85.6,432.133,85.6,370.4,85.6C308.667,85.6,246.933,85.6,185.2,85.6C123.467,85.6,61.733,85.6,30.867,85.6L0,85.6Z"></path></g></g></svg>